<?xml version="1.0" standalone="no"?>
<!DOCTYPE svg PUBLIC "-//W3C//DTD SVG 20010904//EN"
 "http://www.w3.org/TR/2001/REC-SVG-20010904/DTD/svg10.dtd">
<svg version="1.0" xmlns="http://www.w3.org/2000/svg"
 width="44.000000pt" height="57.000000pt" viewBox="0 0 44.000000 57.000000"
 preserveAspectRatio="xMidYMid meet">
<metadata>
Created by potrace 1.16, written by Peter Selinger 2001-2019
</metadata>
<g transform="translate(0.000000,57.000000) scale(0.100000,-0.100000)"
fill="#000000" stroke="none">
<path d="M36 538 c-6 -26 -9 -57 -7 -75 1 -10 27 -13 96 -13 l95 0 0 55 0 55
-90 0 c-85 0 -90 -1 -94 -22z"/>
<path d="M50 411 c0 -5 10 -11 23 -13 16 -2 22 -10 22 -28 0 -21 -5 -26 -32
-28 -32 -3 -33 -5 -33 -45 0 -66 18 -114 59 -157 48 -51 61 -51 61 1 0 39 0
40 22 25 28 -20 62 -20 82 -1 22 23 26 19 26 -25 0 -22 4 -40 10 -40 5 0 25
14 44 30 38 34 62 90 69 163 4 44 3 47 -19 48 -40 2 -41 3 -64 32 -16 20 -26
25 -33 18 -16 -16 -27 -13 -28 7 0 9 -3 12 -5 5 -8 -18 14 -53 34 -54 10 0 12
-3 5 -6 -8 -3 -13 -24 -13 -55 0 -49 -1 -50 -18 -35 -22 20 -75 22 -91 4 -6
-8 -10 -16 -8 -18 1 -2 -1 -2 -4 1 -4 3 -9 37 -11 77 -6 76 -2 83 43 83 10 0
19 5 19 10 0 12 -49 13 -66 2 -7 -4 -14 -16 -16 -27 l-5 -20 -8 20 c-5 11 -13
23 -19 27 -16 11 -46 10 -46 -1z"/>
</g>
</svg>
